<mxfile host="app.diagrams.net" modified="2024-05-06T16:59:32.260Z" agent="Mozilla/5.0 (Windows NT 10.0; Win64; x64) AppleWebKit/537.36 (KHTML, like Gecko) Chrome/120.0.0.0 Safari/537.36" version="24.3.1" etag="J64r-KxmAXtXP6CXnyCl" type="github">
  <diagram name="PÃ¡gina-1" id="iVHBJOoFeRcS7j_Kk96j">
    <mxGraphModel>
      <root>
        <mxCell id="0" />
        <mxCell id="1" parent="0" />
      </root>
    </mxGraphModel>
  </diagram>
</mxfile>
